<?xml version="1.0" encoding="UTF-8"?>
<svg width="24px" height="28px" viewBox="0 0 24 28" version="1.1" xmlns="http://www.w3.org/2000/svg" xmlns:xlink="http://www.w3.org/1999/xlink">
    <!-- Generator: Sketch 47.1 (45422) - http://www.bohemiancoding.com/sketch -->
    <title>客户 btn</title>
    <desc>Created with Sketch.</desc>
    <defs></defs>
    <g id="Symbols" stroke="none" stroke-width="1" fill="none" fill-rule="evenodd">
        <g id="客户-btn" fill-rule="nonzero" stroke="#FFFFFF" fill="#E32C35">
            <g id="客户">
                <path d="M16.1610885,12.6782361 C17.8327374,11.4241238 18.9472952,9.33418699 18.9472952,7.10525917 C18.9472952,3.2043068 15.7431762,0 11.8418482,0 C7.94089581,0 4.73677685,3.20449461 4.73677685,7.10525917 C4.73677685,9.33437483 5.85133467,11.4243116 7.52317141,12.6782361 C3.06475229,14.4892517 0,18.6687496 0,23.6844477 L0,26.05293 C0,26.7493877 0.557278907,27.3066667 1.25373669,27.3066667 L22.7092565,27.3066667 C23.4059021,27.3066667 23.9628054,26.7493878 23.9628054,26.05293 L23.9628054,23.6844477 C23.6844477,18.8081163 20.479953,14.4892517 16.1610885,12.6782361 L16.1610885,12.6782361 L16.1610885,12.6782361 M6.96608032,7.10525917 C6.96608032,4.45823131 9.05564147,2.36848235 11.703045,2.36848235 C14.3502607,2.36848235 16.4400097,4.45823131 16.4400097,7.10525917 C16.4400097,9.75247488 14.3502607,11.8422238 11.703045,11.8422238 C9.05564144,11.8422238 6.96608032,9.75247485 6.96608032,7.10525917 L6.96608032,7.10525917 L6.96608032,7.10525917 M21.3159653,24.9381843 L2.08956115,24.9381843 L2.08956115,23.6844477 C2.08956115,18.3902041 6.40842576,14.210894 11.7026693,14.210894 C16.9969129,14.210894 21.3159653,18.5297586 21.3159653,23.6844477 L21.3159653,24.9381843 L21.3159653,24.9381843 L21.3159653,24.9381843" id="Shape"></path>
            </g>
        </g>
    </g>
</svg>