<?xml version="1.0" encoding="UTF-8"?>
<svg width="14px" height="15px" viewBox="0 0 14 15" version="1.1" xmlns="http://www.w3.org/2000/svg" xmlns:xlink="http://www.w3.org/1999/xlink">
    <!-- Generator: Sketch 47.1 (45422) - http://www.bohemiancoding.com/sketch -->
    <title>券 logo</title>
    <desc>Created with Sketch.</desc>
    <defs></defs>
    <g id="Symbols" stroke="none" stroke-width="1" fill="none" fill-rule="evenodd">
        <g id="券-logo" fill-rule="nonzero" fill="#EBA100">
            <g id="券-(3)">
                <path d="M7.85997262,6.77820129 L6.31855003,6.77820129 C6.01806197,7.17939346 5.62986386,7.55459749 5.15395573,7.90543762 L8.87513503,7.90543762 C8.499931,7.60494956 8.1604607,7.22812127 7.85997262,6.77820129 L7.85997262,6.77820129 Z" id="Shape"></path>
                <path d="M0.00180349206,0.00503774603 L0.00180349206,14.8572697 L2.38946548,13.3109744 L4.54973106,14.902749 L6.82369484,13.1972762 L9.3900254,14.902749 L11.3732467,13.1972762 L13.988305,14.8442757 L13.988305,0.00503774603 L0.00180349206,0.00503774603 Z M11.394362,8.65746994 C11.269294,8.88324205 11.181584,9.05866211 11.131232,9.18373013 C10.6049718,8.98394616 10.1404334,8.76954387 9.74086552,8.545396 C9.71487737,9.14637214 9.6775194,9.67263233 9.62879159,10.1241766 C9.60280343,10.9005728 9.07654324,11.2887709 8.05001103,11.2887709 C7.79987502,11.3131348 7.31097281,11.3261289 6.58330438,11.3261289 C6.50858843,11.0256408 6.43224822,10.7251527 6.35753227,10.4246646 L7.78525667,10.4246646 C8.33588075,10.4490285 8.624999,10.2622387 8.6493629,9.86104648 C8.67372681,9.73597846 8.69971495,9.48584244 8.72407886,9.10901416 C8.74844276,8.9335941 8.76143684,8.8085261 8.76143684,8.73381014 L6.355908,8.73381014 C6.23083998,10.1371707 5.17831962,11.064623 3.19834687,11.514543 C3.04729071,11.264407 2.86050083,10.9882828 2.6347287,10.6877947 C4.36294117,10.3873067 5.27902373,9.73597846 5.37810359,8.73381014 L4.51399735,8.73381014 L4.51399735,8.31962389 C4.06245311,8.64610011 3.51182903,8.957958 2.86050083,9.26007033 C2.83451267,9.20971829 2.81014878,9.1479964 2.78578487,9.07165619 C2.61036481,8.74680422 2.47230273,8.50803803 2.37159862,8.35698186 C3.59953906,7.85670983 4.48963346,7.33044963 5.04025754,6.77820129 L2.52265478,6.77820129 L2.52265478,5.95145303 L5.71757389,5.95145303 C5.91735786,5.67532886 6.06841402,5.38783487 6.16911813,5.08734679 L2.93684103,5.08734679 L2.93684103,4.26059854 L4.66667778,4.26059854 C4.34020156,3.83504246 4.00235551,3.45821417 3.65151537,3.13336221 L4.44090565,2.68181797 C4.61632571,2.85723803 4.86646173,3.1089983 5.19293795,3.43385027 L5.56814198,3.8090543 L4.7787517,4.26059854 L6.39489024,4.26059854 C6.5459464,3.58328219 6.63203217,2.98230605 6.65802033,2.45604584 L7.67318275,2.45604584 C7.59846679,3.20807814 7.50913251,3.80905429 7.41005265,4.26059854 L9.13988938,4.26059854 L8.50155525,3.8090543 C8.77767943,3.58328219 9.1268953,3.23244206 9.55407563,2.75653392 C9.55407563,2.78252208 9.57843954,2.75653392 9.62879159,2.68181797 L10.4555399,3.09600422 C10.3808239,3.17072017 10.2801198,3.28441837 10.1550518,3.43385027 C9.85456371,3.7846904 9.59143362,4.06081457 9.36566149,4.26059854 L11.019158,4.26059854 L11.019158,5.08734679 L7.22163851,5.08734679 C7.1209344,5.38783486 6.9958664,5.67695311 6.84643448,5.95145303 L11.469078,5.95145303 L11.469078,6.77820129 L8.94985098,6.77820129 C9.55082713,7.45551763 10.4279274,7.94279559 11.5811519,8.24490794 C11.5307999,8.34398779 11.469078,8.48204987 11.394362,8.65746994 L11.394362,8.65746994 Z" id="Shape"></path>
            </g>
        </g>
    </g>
</svg>