<?xml version="1.0" encoding="UTF-8"?>
<svg width="39px" height="27px" viewBox="0 0 39 27" version="1.1" xmlns="http://www.w3.org/2000/svg" xmlns:xlink="http://www.w3.org/1999/xlink">
    <!-- Generator: Sketch 47.1 (45422) - http://www.bohemiancoding.com/sketch -->
    <title>券 btn</title>
    <desc>Created with Sketch.</desc>
    <defs></defs>
    <g id="Symbols" stroke="none" stroke-width="1" fill="none" fill-rule="evenodd">
        <g id="券-btn" fill-rule="nonzero" fill="#E32C35">
            <g id="券-(2)">
                <path d="M38.0300272,8.61839508 C38.5213156,8.61839508 38.9083913,8.21643185 38.9083913,7.72514346 L38.9083913,3.40776071 C38.9083913,1.53193234 37.3898636,0.0134046118 35.5140352,0.0134046118 L3.43141498,0.0134045706 C1.55558661,0.0134045706 0.0370588855,1.5319323 0.0370588855,3.40776067 L0.0370588855,7.72514341 C0.0370588855,8.20154425 0.424134596,8.60350748 0.900535435,8.61839503 C3.29742723,8.66305762 5.24769325,10.6579862 5.24769325,13.054878 C5.24769325,15.4517698 3.29742723,17.4466984 0.900535435,17.491361 C0.424134596,17.5062485 0.0370588855,17.8933242 0.0370588855,18.3846126 L0.0370588855,22.7019954 C0.0370588855,24.5778237 1.55558661,26.0963515 3.43141498,26.0963515 L35.5289227,26.0963515 C37.4047511,26.0963515 38.9232788,24.5778237 38.9232788,22.7019954 L38.9232788,18.3846126 C38.9232788,17.8933242 38.5213156,17.491361 38.0449147,17.491361 C35.6033604,17.491361 33.6233193,15.4964324 33.6233193,13.054878 C33.6084317,10.6133236 35.5884728,8.61839508 38.0300272,8.61839508 Z M31.8368161,13.054878 C31.8368161,16.1663711 34.1443827,18.7568008 37.1516631,19.2034266 L37.1516631,22.7019954 C37.1516631,23.595247 36.4221743,24.3247358 35.5289227,24.3247358 L3.43141498,24.3247358 C2.53816336,24.3247358 1.80867457,23.595247 1.80867457,22.7019954 L1.80867457,19.188539 C4.75640486,18.7121382 7.03419645,16.1217085 7.03419645,13.054878 C7.03419645,9.98804749 4.75640486,7.41250536 1.80867457,6.92121701 L1.80867457,3.40776071 C1.80867457,2.51450909 2.53816336,1.7850203 3.43141498,1.7850203 L35.5289227,1.7850203 C36.4221743,1.7850203 37.1516631,2.51450909 37.1516631,3.40776071 L37.1516631,6.90632949 C34.1443827,7.3529553 31.8368161,9.94338495 31.8368161,13.054878 Z" id="Shape"></path>
                <path d="M27.4003331,11.3577 C27.3556705,11.0003994 27.1621327,10.8068615 26.804832,10.7621989 L18.3636044,10.7621989 C18.6315798,10.2411355 18.8697803,9.73495958 19.0930932,9.24367118 L26.209331,9.24367118 C26.521969,9.24367118 26.6857318,9.05013333 26.7303944,8.6481701 C26.6857318,8.24620688 26.4921939,8.03778151 26.1348933,7.99311892 L23.0382877,7.99311892 C23.2169381,7.63581829 23.4551385,7.02542969 23.7677765,6.14706559 C23.8124391,6.05774042 23.8571017,5.99819032 23.9017643,5.95352773 C24.035752,5.55156451 23.9166518,5.26870148 23.5742387,5.09005118 C23.1722755,4.95606343 22.9191875,5.09005118 22.7851998,5.49201441 C22.2641364,6.68301657 21.8621731,7.51671804 21.5941976,7.99311888 L19.4206187,7.99311888 C19.6885942,7.07009223 19.852357,6.25127827 19.9416821,5.55156451 C19.9416821,5.14960128 19.7630318,4.89651333 19.4206187,4.76252557 C19.0186555,4.71786299 18.7804551,4.86673826 18.6911299,5.2240389 C18.6018048,5.7897649 18.4231545,6.71279155 18.1700665,7.99311888 L16.4580009,7.99311888 C16.5026635,7.85913113 16.5026635,7.66559331 16.4580009,7.3976178 C16.0113751,6.42992857 15.6838495,5.74510232 15.4754242,5.35802665 C15.2074487,5.00072601 14.8799231,4.92628836 14.4928474,5.09005118 C14.1355468,5.35802665 14.0759967,5.65577719 14.2993096,6.01307783 C14.6119476,6.45970364 14.9394732,7.11475482 15.2818863,7.99311888 L13.1678575,7.99311892 C12.8105569,8.03778151 12.617019,8.26109439 12.5723564,8.6481701 C12.617019,9.05013333 12.8105569,9.24367118 13.1678575,9.24367118 L17.7085532,9.24367118 C17.3512525,9.94338495 17.0683895,10.4495609 16.8450766,10.7621989 L12.2299433,10.7621989 C11.8279801,10.8068615 11.6195547,11.0003994 11.5748922,11.3577 C11.6195547,11.7596632 11.8428676,11.9532011 12.2299433,11.9532011 L15.7285121,11.9532011 C14.8501481,12.6975774 13.5995958,13.3972912 11.9768554,14.0672299 C11.5748922,14.2905428 11.5004545,14.5882933 11.7088799,14.9902565 C11.8875303,15.258232 12.2150558,15.3028946 12.6914567,15.1242443 C13.2571827,14.8562688 13.8080212,14.6031809 14.3439722,14.3352054 C14.1653218,14.8562688 14.3439722,15.1540193 14.8650356,15.1986819 L17.0981646,15.1986819 C16.9641768,17.4020359 15.6987371,18.8907885 13.2720702,19.6798275 C12.870107,19.7244901 12.7212317,19.9180279 12.8105569,20.2753286 C12.9892072,20.7517294 13.2422952,20.9750423 13.5995958,20.9303797 C16.5919887,20.0520157 18.2296166,18.1464122 18.5422547,15.1986819 L23.2913757,15.258232 C23.7677766,15.258232 24.0208645,15.5262075 24.0208645,16.047271 C23.9762019,16.2259213 23.9613144,16.4045716 23.9613144,16.5683344 C23.8719893,17.6253488 23.7826641,18.310175 23.693339,18.6079256 C23.5593512,19.66494 22.3534615,19.7096025 20.0756699,18.7419133 C19.6290441,18.6972507 19.3015186,18.8014634 19.0930932,19.0694389 C18.9144429,19.4267395 19.0335431,19.7096025 19.4206188,19.9329154 C22.1896987,21.2579053 24.035752,21.0048173 24.9587787,19.2034266 C25.0927665,18.8014634 25.1969792,17.9528744 25.2863043,16.6278845 C25.3309669,16.2259213 25.3756295,15.8388456 25.4202921,15.4368823 C25.5096172,14.4245305 25.0481039,13.9481297 24.0357521,13.9927922 L14.8799231,13.9927922 C15.8029498,13.5163914 16.6813139,12.8315651 17.5150154,11.9532011 L22.2641364,11.9532011 C23.0978379,12.9655529 24.4972654,13.9332421 26.4773065,14.8562688 C26.8792697,15.0795817 27.1621327,15.005144 27.340783,14.6627309 C27.4747708,14.2607677 27.3556705,13.9630172 27.0132574,13.7397043 C25.6882676,13.2186408 24.6908033,12.6231398 23.976202,11.9532011 L26.8792697,11.9532011 C27.1770202,11.9532011 27.3556705,11.7596632 27.4003331,11.3577 Z" id="Shape"></path>
            </g>
        </g>
    </g>
</svg>