<?xml version="1.0" encoding="UTF-8"?>
<svg width="30px" height="27px" viewBox="0 0 30 27" version="1.1" xmlns="http://www.w3.org/2000/svg" xmlns:xlink="http://www.w3.org/1999/xlink">
    <!-- Generator: Sketch 47.1 (45422) - http://www.bohemiancoding.com/sketch -->
    <title>本地仓 btn</title>
    <desc>Created with Sketch.</desc>
    <defs></defs>
    <g id="Symbols" stroke="none" stroke-width="1" fill="none" fill-rule="evenodd">
        <g id="本地仓-btn" fill-rule="nonzero" fill="#E32C35">
            <g id="本地仓">
                <path d="M29.9783705,11.6461626 C29.9783705,11.5783987 29.96913,11.5116614 29.9496222,11.4480044 L26.755475,0.522603972 C26.665123,0.214585923 26.3776395,0.00205345819 26.0511403,0.00205345819 L4.75066513,0.00205345819 C4.44059362,0.00205345819 4.16543083,0.191997909 4.0607047,0.477427997 L0.050309608,11.4028284 C0.0215612718,11.4808596 0.00718709059,11.5629978 0.00718709059,11.6461626 C0.00718709059,13.0794733 0.957936141,14.2879308 2.27009307,14.7304501 L2.27009307,23.1609043 C2.27009307,25.1424871 3.91490948,26.7544482 5.93550792,26.7544482 L24.049023,26.7544482 C26.0696214,26.7544482 27.7144378,25.1424871 27.7144378,23.1609043 L27.7144378,14.7304501 C29.0265948,14.2889576 29.9783705,13.0805001 29.9783705,11.6461626 Z M18.9164155,25.3170307 L11.0681154,25.3170307 L11.0681154,20.4308376 C11.0681154,19.2418879 12.0537732,18.2747112 13.2673643,18.2747112 L16.7181933,18.2747112 C17.9307577,18.2747112 18.9164155,19.2418879 18.9164155,20.4308376 L18.9164155,25.3170307 Z M24.049023,25.3170307 L20.3836081,25.3170307 L20.3836081,20.4308376 C20.3836081,18.4492548 18.7387917,16.8372936 16.7181933,16.8372936 L13.2673643,16.8372936 C11.2457392,16.8372936 9.60092276,18.4492548 9.60092276,20.4308376 L9.60092276,25.3170307 L5.93550792,25.3170307 C4.72294351,25.3170307 3.73625901,24.349854 3.73625901,23.1609043 L3.73625901,14.8824057 C4.82664293,14.7561183 5.74967036,14.1216011 6.25892686,13.2191082 C6.82876027,14.2283807 7.91298384,14.9203946 9.16969748,14.9203946 C10.4274379,14.9203946 11.5116614,14.2283807 12.0814948,13.2191082 C12.6513282,14.2283807 13.7355518,14.9203946 14.9922655,14.9203946 C16.2500058,14.9203946 17.3332027,14.2283807 17.9040628,13.2191082 C18.4738962,14.2283807 19.5581197,14.9203946 20.8148334,14.9203946 C22.0725738,14.9203946 23.1567974,14.2283807 23.7266308,13.2191082 C24.2358873,14.1216011 25.1589147,14.7561183 26.2482719,14.8824057 L26.2482719,23.1609043 C26.2482719,24.349854 25.2615874,25.3170307 24.049023,25.3170307 Z M26.6374014,13.482977 C25.6034875,13.482977 24.7636249,12.6585153 24.7636249,11.6461626 C24.7636249,11.2488194 24.4350723,10.9274539 24.0305419,10.9274539 C23.9206821,10.9274539 23.8200629,10.953122 23.7266308,10.9952178 C23.6331986,10.953122 23.5315527,10.9274539 23.4227196,10.9274539 C23.0171625,10.9274539 22.6896366,11.2488194 22.6896366,11.6461626 C22.6896366,12.6585153 21.8487474,13.482977 20.8148334,13.482977 C19.7809195,13.482977 18.9410569,12.6585153 18.9410569,11.6461626 C18.9410569,11.2488194 18.6125043,10.9274539 18.2069472,10.9274539 C18.0981142,10.9274539 17.9964682,10.953122 17.9040628,10.9952178 C17.8106307,10.953122 17.7089847,10.9274539 17.6001517,10.9274539 C17.1945945,10.9274539 16.8670687,11.2488194 16.8670687,11.6461626 C16.8670687,12.6585153 16.0261794,13.482977 14.9922655,13.482977 C13.9593782,13.482977 13.118489,12.6585153 13.118489,11.6461626 C13.118489,11.2488194 12.7899364,10.9274539 12.385406,10.9274539 C12.2755462,10.9274539 12.174927,10.953122 12.0814948,10.9952178 C11.9880627,10.953122 11.8864167,10.9274539 11.7775837,10.9274539 C11.3730533,10.9274539 11.0445007,11.2488194 11.0445007,11.6461626 C11.0445007,12.6585153 10.2036114,13.482977 9.16969748,13.482977 C8.13681029,13.482977 7.295921,12.6585153 7.295921,11.6461626 C7.295921,11.2488194 6.9673684,10.9274539 6.56283802,10.9274539 C6.45297826,10.9274539 6.35235902,10.953122 6.25892686,10.9952178 C6.16549474,10.953122 6.06384878,10.9274539 5.95501573,10.9274539 C5.55048536,10.9274539 5.22193275,11.2488194 5.22193275,11.6461626 C5.22193275,12.6585153 4.38104347,13.482977 3.34712953,13.482977 C2.35325794,13.482977 1.53803681,12.7201189 1.4764332,11.7611561 L5.26608201,1.43947105 L25.4977346,1.43947105 L28.5101512,11.7385681 C28.4598416,12.7088249 27.6394868,13.482977 26.6374014,13.482977 Z" id="Shape"></path>
            </g>
        </g>
    </g>
</svg>