<?xml version="1.0" encoding="UTF-8"?>
<svg width="22px" height="21px" viewBox="0 0 22 21" version="1.1" xmlns="http://www.w3.org/2000/svg" xmlns:xlink="http://www.w3.org/1999/xlink">
    <!-- Generator: Sketch 47.1 (45422) - http://www.bohemiancoding.com/sketch -->
    <title>会员 logo</title>
    <desc>Created with Sketch.</desc>
    <defs></defs>
    <g id="Symbols" stroke="none" stroke-width="1" fill="none" fill-rule="evenodd">
        <g id="会员-logo" fill-rule="nonzero" fill="#EFB336">
            <g id="会员-(1)">
                <path d="M17.2781506,4.31034337 L4.72352811,4.31034337 L0.0167208835,9.01823293 L11,20.0004297 L21.9832791,9.01823293 L17.2781506,4.31034337 Z M18.1554558,9.43691767 C17.622994,9.45414659 16.3625663,9.57015462 15.6712892,10.2608795 C14.9439418,10.9899498 14.8528715,12.3530442 14.8434618,12.8266627 C14.8451185,12.9316044 14.8434618,12.9954839 14.8434618,12.9954839 C14.8434618,12.9954839 14.8423574,12.9333052 14.8434618,12.8266627 C14.8345823,12.3402771 14.7446165,10.9149598 13.9989357,10.1681747 C13.3082329,9.47800201 12.0111827,9.42024096 11.4992189,9.42638153 C11.3659819,9.43470884 11.2821124,9.43360442 11.2821124,9.43360442 C11.2821124,9.43360442 11.3643032,9.42803815 11.4992189,9.42638153 C11.9883655,9.39859438 13.1944116,9.26255221 13.8773394,8.57909438 C14.7862751,7.66960643 14.843506,5.87227711 14.843506,5.87227711 C14.843506,5.87227711 14.7446606,7.7523494 15.6352631,8.64350402 C16.3282189,9.33588554 17.6163896,9.42859036 18.1555442,9.43693976 C18.3093233,9.43084337 18.4059598,9.43362651 18.4059598,9.43362651 C18.4059598,9.43362651 18.3093675,9.43808835 18.1555442,9.43693976 L18.1554558,9.43691767 Z M15.2198695,0.0116184739 C15.2198695,0.0116184739 15.1626827,1.09160643 15.6740944,1.60292972 C16.1854839,2.11487149 17.2659578,2.05768474 17.2659578,2.05768474 C17.2659578,2.05768474 16.2065341,2.02106225 15.6945924,2.53242972 C15.1826506,3.04437149 15.2198474,4.10266867 15.2198474,4.10266867 C15.2198474,4.10266867 15.2559398,3.00107831 14.733992,2.47910843 C14.2342651,1.97825502 13.1748635,2.05764056 13.1748635,2.05764056 C13.1748635,2.05764056 14.1643554,2.06707229 14.6657169,1.56624096 C15.1871124,1.04427108 15.2198695,0.0115522088 15.2198695,0.0115522088 L15.2198695,0.0116184739 Z M19.5279819,2.28643173 C19.5279819,2.28643173 19.4890843,3.02380723 19.8377932,3.37247189 C20.1859498,3.72118072 20.9227068,3.68283534 20.9227068,3.68283534 C20.9227068,3.68283534 20.2003514,3.65785341 19.8510904,4.00656225 C19.5018514,4.3558012 19.5279598,5.07764859 19.5279598,5.07764859 C19.5279598,5.07764859 19.5518373,4.3258494 19.1953755,3.96993976 C18.8544418,3.62790161 18.1315341,3.68230522 18.1315341,3.68230522 C18.1315341,3.68230522 18.8067088,3.68840161 19.1481727,3.34693775 C19.5040823,2.99153614 19.5279378,2.28643173 19.5279378,2.28643173 L19.5279819,2.28643173 Z" id="Shape"></path>
            </g>
        </g>
    </g>
</svg>